<?xml version="1.0" standalone="no"?>
<!DOCTYPE svg PUBLIC "-//W3C//DTD SVG 20010904//EN"
 "http://www.w3.org/TR/2001/REC-SVG-20010904/DTD/svg10.dtd">
<svg version="1.0" xmlns="http://www.w3.org/2000/svg"
 width="32.000000pt" height="32.000000pt" viewBox="0 0 32.000000 32.000000"
 preserveAspectRatio="xMidYMid meet">
<metadata>
Created by potrace 1.13, written by Peter Selinger 2001-2015
</metadata>
<g transform="translate(0.000000,32.000000) scale(0.100000,-0.100000)"
fill="#000000" stroke="none">
<path d="M120 246 c0 -13 7 -26 15 -30 18 -6 21 -71 3 -82 -6 -4 -17 1 -24 10
-8 11 -22 16 -41 14 -24 -2 -28 -8 -31 -35 -3 -32 -2 -33 32 -33 20 0 36 5 36
10 0 6 9 10 20 10 15 0 20 -7 20 -25 0 -21 5 -25 30 -25 17 0 30 -4 30 -10 0
-5 16 -10 35 -10 33 0 35 2 35 35 0 33 -2 35 -35 35 -19 0 -35 -4 -35 -10 0
-5 -9 -10 -20 -10 -16 0 -20 7 -20 35 0 38 21 48 38 19 6 -10 19 -14 38 -12
25 2 29 8 32 36 3 31 2 32 -32 32 -20 0 -36 -4 -36 -10 0 -5 -9 -10 -20 -10
-23 0 -27 28 -5 36 8 4 15 17 15 30 0 21 -4 24 -40 24 -36 0 -40 -3 -40 -24z"/>
</g>
</svg>
