<?xml version="1.0" encoding="UTF-8" standalone="no"?>
<!-- Created with Inkscape (http://www.inkscape.org/) -->

<svg
   xmlns:dc="http://purl.org/dc/elements/1.1/"
   xmlns:cc="http://creativecommons.org/ns#"
   xmlns:rdf="http://www.w3.org/1999/02/22-rdf-syntax-ns#"
   xmlns:svg="http://www.w3.org/2000/svg"
   xmlns="http://www.w3.org/2000/svg"
   xmlns:sodipodi="http://sodipodi.sourceforge.net/DTD/sodipodi-0.dtd"
   xmlns:inkscape="http://www.inkscape.org/namespaces/inkscape"
   width="32px"
   height="32px"
   id="svg3013"
   version="1.1"
   inkscape:version="0.48.4 r9939"
   sodipodi:docname="New document 2">
  <defs
     id="defs3015" />
  <sodipodi:namedview
     id="base"
     pagecolor="#ffffff"
     bordercolor="#666666"
     borderopacity="1.0"
     inkscape:pageopacity="0.0"
     inkscape:pageshadow="2"
     inkscape:zoom="11.197802"
     inkscape:cx="7.4122997"
     inkscape:cy="19.57213"
     inkscape:current-layer="layer1"
     showgrid="true"
     inkscape:grid-bbox="true"
     inkscape:document-units="px"
     inkscape:window-width="1481"
     inkscape:window-height="897"
     inkscape:window-x="37"
     inkscape:window-y="31"
     inkscape:window-maximized="0" />
  <metadata
     id="metadata3018">
    <rdf:RDF>
      <cc:Work
         rdf:about="">
        <dc:format>image/svg+xml</dc:format>
        <dc:type
           rdf:resource="http://purl.org/dc/dcmitype/StillImage" />
        <dc:title></dc:title>
      </cc:Work>
    </rdf:RDF>
  </metadata>
  <g
     id="layer1"
     inkscape:label="Layer 1"
     inkscape:groupmode="layer">
    <g
       style="fill:#000000;stroke:none"
       transform="matrix(0.02267139,0,0,-0.02503138,2.0091806,32.275345)"
       id="g6">
      <path
         inkscape:connector-curvature="0"
         d="m 148,1269 c -17,-9 -18,-50 -18,-627 0,-467 3,-621 12,-630 18,-18 981,-17 995,1 17,21 22,218 16,606 l -6,373 -140,144 -139,144 -352,0 c -220,0 -358,-4 -368,-11 z m 652,-214 0,-135 130,0 130,0 0,-415 0,-415 -420,0 -420,0 0,550 0,550 290,0 290,0 0,-135 z"
         id="path8" />
      <path
         inkscape:connector-curvature="0"
         d="m 320,715 0,-45 325,0 325,0 0,45 0,45 -325,0 -325,0 0,-45 z"
         id="path10" />
      <path
         inkscape:connector-curvature="0"
         d="m 320,565 0,-45 250,0 250,0 0,45 0,45 -250,0 -250,0 0,-45 z"
         id="path12" />
      <path
         inkscape:connector-curvature="0"
         d="m 320,415 0,-45 295,0 295,0 0,45 0,45 -295,0 -295,0 0,-45 z"
         id="path14" />
      <path
         inkscape:connector-curvature="0"
         d="m 320,265 0,-45 175,0 175,0 0,45 0,45 -175,0 -175,0 0,-45 z"
         id="path16" />
    </g>
  </g>
</svg>
